<?xml version="1.0" standalone="no"?><!DOCTYPE svg PUBLIC "-//W3C//DTD SVG 1.1//EN" "http://www.w3.org/Graphics/SVG/1.1/DTD/svg11.dtd"><svg t="1584616898025" class="icon" viewBox="0 0 1024 1024" version="1.1" xmlns="http://www.w3.org/2000/svg" p-id="7015" xmlns:xlink="http://www.w3.org/1999/xlink" width="200" height="200"><defs><style type="text/css"></style></defs><path d="M940.571429 264.8c-43.485714-74.628571-102.571429-133.714286-177.142858-177.2S607.371429 22.285714 519.028571 22.285714s-169.771429 21.714286-244.342857 65.257143-133.657143 102.571429-177.2 177.2S32.114286 420.8 32.114286 509.142857s21.714286 169.771429 65.257143 244.342857S200 887.142857 274.571429 930.685714 430.628571 996 519.028571 996s169.828571-21.771429 244.342858-65.257143C837.942857 887.2 897.028571 828.171429 940.571429 753.542857S1005.885714 597.485714 1005.885714 509.142857 984.057143 339.314286 940.571429 264.8z m-750.057143 54c33.942857-58.114286 80.057143-104.171429 138.114285-138.114286 58.114286-33.942857 121.542857-50.914286 190.342858-50.914285s132.228571 16.971429 190.342857 50.914285c14.285714 8.342857 27.828571 17.428571 40.628571 27.2l-532.171428 532.171429c-9.771429-12.8-18.857143-26.342857-27.2-40.571429-33.942857-58.114286-50.914286-121.542857-50.914286-190.342857s16.914286-132.228571 50.857143-190.342857zM847.428571 699.485714c-33.942857 58.114286-80 104.114286-138.057142 138.057143-58.114286 33.942857-121.542857 50.914286-190.342858 50.914286s-132.228571-16.971429-190.342857-50.914286c-14.228571-8.342857-27.771429-17.371429-40.571428-27.2l532.171428-532.171428c9.771429 12.8 18.857143 26.342857 27.142857 40.628571C881.371429 376.857143 898.342857 440.342857 898.342857 509.142857S881.371429 641.371429 847.428571 699.485714z" p-id="7016"></path></svg>